<?xml version="1.0" encoding="UTF-8" standalone="no"?>
<!-- Created with Inkscape (http://www.inkscape.org/) -->
<svg xmlns:inkscape="http://www.inkscape.org/namespaces/inkscape" xmlns:rdf="http://www.w3.org/1999/02/22-rdf-syntax-ns#" xmlns="http://www.w3.org/2000/svg" xmlns:cc="http://creativecommons.org/ns#" xmlns:dc="http://purl.org/dc/elements/1.1/" xmlns:sodipodi="http://sodipodi.sourceforge.net/DTD/sodipodi-0.dtd" xmlns:svg="http://www.w3.org/2000/svg" xmlns:ns1="http://sozi.baierouge.fr" xmlns:xlink="http://www.w3.org/1999/xlink" id="svg3065" sodipodi:docname="runner4.svg" viewBox="0 0 182.2 307.27" inkscape:version="0.47 r22583">
	<g id="layer1" inkscape:label="Layer 1" inkscape:groupmode="layer" transform="translate(-374.13 -147.95)">
		<path id="path7112" style="fill:#ffffff" d="m374.13 287.28 2.5254 5.8084 4.7982 4.5457 5.5558 0.7576s3.283-5.8084 3.5355-6.8185c0.25254-1.0102 1.5152-6.3135 1.7678-8.3338 0.25254-2.0203 6.0609-13.637 7.0711-15.152 1.0102-1.5152 9.849-14.647 9.849-14.647s5.8084-9.0914 6.0609-10.354c0.25254-1.2627 5.5558-5.8084 5.5558-5.8084l11.364-13.384s1.2627 8.3337 1.5152 10.354c0.25254 2.0203 1.0102 9.3439 1.5152 12.374 0.50507 3.0304 0.25254 8.5863 0 10.101-0.25254 1.5152-2.2728 13.384-2.2728 13.384s-3.7881 2.778-2.7779 5.8084c1.0102 3.0305-0.25253 26.264-0.25253 27.274 0 1.0102-3.7881 12.88-3.7881 12.88l-3.7881 16.162s-2.2728 11.112-1.7678 12.627c0.50507 1.5153 1.0102 16.668 1.0102 16.668l2.7779 14.647s1.7678 4.2931 3.7881 3.5355c2.0203-0.75759 10.354 0.2525 10.859-1.5152 0.50508-1.7678 2.7779-6.566 3.283-7.5762 0.50507-1.0101 6.566-11.364 6.566-11.364l2.2728-10.354s-0.75761-6.0609 0-7.071c0.75761-1.0102 4.5457-10.607 4.5457-10.607l1.2627-3.0305v9.5965l0.25254 9.0913-1.7678 12.374s0 7.3236 0.75761 8.8388c0.75762 1.5153 2.2728 5.8084 2.0203 6.8186-0.25254 1.0101-1.7678 4.5457-2.0203 5.8083-0.25254 1.2627-1.7678 7.8287-1.5152 9.0914 0.25254 1.2627 1.7678 6.566 2.0203 7.5762 0.25254 1.0101 2.5254 21.971 2.5254 21.971l0.75761 15.657-2.5254 7.0711 1.7678 9.5965s-1.2627 1.5152 0.25254 1.5152 11.112 2.0203 11.112 2.0203l5.3033-2.2729-0.50508-4.0406s-3.5355-5.8083-4.2932-7.071c-0.75761-1.2627-2.2728-2.5254-2.2728-4.2932 0-1.7677 0.75761-12.879 0.75761-12.879l4.5457-20.961 2.2728-14.142-0.50507-10.102-1.7678-7.5762-2.7779-7.0711 2.5254-11.364 9.0914-19.951 7.0711-21.213s4.5457-27.022 4.0406-28.032c-0.50507-1.0102-3.7881-11.364-3.7881-11.364s-2.0203-6.061-2.0203-7.0711c0-1.0102 0.25253-9.5965 0.25253-11.112 0-1.5152 2.2728-13.132 2.2728-13.132l3.5355-13.637 3.0305-7.5762 15.91 11.617s8.8388 3.5355 9.849 4.5457c1.0102 1.0101 19.193 7.071 19.193 7.071l4.2932 0.7576-4.5457 0.7577 2.7779 5.0507s2.2728 0 1.5152-1.0101c-0.75762-1.0102-1.5152-1.5153-0.50508-2.5254 1.0102-1.0102 4.2932-3.5355 4.2932-3.5355l2.7779-2.778 1.0102-5.0507s3.5355-4.0406 2.0203-4.0406-9.849 2.0203-9.849 2.0203-7.5761 1.2627-9.0914 0.2525c-1.5152-1.0101-8.5863-4.2931-8.5863-5.8084 0-1.5152-14.647-14.142-14.647-14.142l-6.566-4.0406s-0.25254-10.102-2.0203-11.112c-1.7678-1.0101-7.8287-4.2931-9.5964-4.0406-1.7678 0.2525-5.3033-1.0102-5.3033-1.0102l-9.3439-7.071 0.75761-5.3033s1.0102-1.0102 2.7779-1.7678c1.7678-0.7576 3.7881-4.7982 4.0406-5.8084 0.25254-1.0101-0.75761-6.8185-1.0102-7.8287-0.25254-1.0101-3.0305-8.3337-4.2932-10.102-1.2627-1.7677-3.7881-4.2931-6.0609-5.0507-2.2728-0.7577-3.7881-1.2627-5.8084-1.7678s-2.7779-1.2627-6.3134 0-6.566 1.5152-6.8185 2.7779l-0.75762 3.7881c-0.25253 1.2627-0.25253 2.7779-0.50507 4.0406s-0.50508 3.5355-1.0102 5.3033c-0.50507 1.7678-0.25253 1.7678-0.50507 3.7881s-0.25254 3.0304 0.25254 5.8083c0.50507 2.778 0 4.2932 1.2627 5.8084 1.2627 1.5153 2.0203 0.7576 1.5152 3.283-0.50508 2.5254-0.75762 3.7881-1.7678 4.0406-1.0102 0.2526-6.566-0.505-6.566-0.505l-4.5457 3.0304s-3.5355 4.5457-5.3033 4.5457-3.5355-0.5051-7.3236 0.7576-11.364 12.122-11.869 13.132c-0.50507 1.0101-5.8084 7.8287-5.8084 7.8287s-3.0304 2.5254-3.0304 5.3033-0.25254 5.8084-1.5152 6.0609-8.5863 12.122-8.5863 12.122-5.0508 6.0609-5.5558 7.0711c-0.50507 1.0101-4.7982 10.607-4.7982 10.607l-7.3236 17.678-2.0203 5.5558-8.3338 6.8185z">
		</path>
	</g>
	<metadata>
	</metadata>
</svg>
